<?xml version="1.0" encoding="utf-8"?>
<!-- Generator: Adobe Illustrator 19.2.1, SVG Export Plug-In . SVG Version: 6.00 Build 0)  -->
<svg version="1.1" id="Layer_1" xmlns="http://www.w3.org/2000/svg" xmlns:xlink="http://www.w3.org/1999/xlink" x="0px" y="0px"
	 viewBox="0 0 314.6 226.8" style="enable-background:new 0 0 314.6 226.8;" xml:space="preserve">
<g>
	<path fill="#FFF" d="M267.4,194.3c2.5,2.4,6.1,3.6,9.6,3.6c6.2,0,9-3.7,9-6.9c0-1.7-0.8-3.3-2-4.3c-1.3-1-2.4-1.2-6.6-2
		c-2.6-0.4-4.1-0.8-4.1-2.3c0-1,1-2,3.3-2c3.5,0,4.9,2,5.5,3.1l3.4-3.2c-0.4-0.5-1-1.2-2-1.8c-1.4-1-3.6-1.9-6.6-1.9
		c-5.5,0-8.6,3.1-8.6,6.5c0,1.8,0.9,4.6,5.7,5.7c0.7,0.2,4,0.8,4.7,1c0.6,0.1,2.1,0.4,2.1,1.7c0,1-1.2,2.4-4,2.4
		c-2.8,0-4.6-1.1-5.8-2.6L267.4,194.3z M259.1,197.2h4.8v-20.1h-4.8V197.2z M259.1,174h4.8v-4.9h-4.8V174z M240.6,184.6
		c0.6-2.7,2.3-4.2,4.9-4.2c2.1,0,4.1,1.1,4.5,4.2H240.6z M251.3,190.4c-0.6,0.8-1.9,2.8-5.2,2.8c-3.2,0-5.1-1.8-5.7-5h14.9
		c0-2-0.4-5.5-2-7.8c-0.4-0.6-2.6-3.8-7.9-3.8c-5.7,0-10,3.8-10,10.6c0,7.4,5.1,10.7,10.3,10.7c4.1,0,7.3-1.8,9.8-5.1L251.3,190.4z
		 M223.1,177.1v20.1h4.7v-7.4c0-3.3,0-5.4,2.1-6.9c1.5-1.1,3.3-1.2,4.3-1.2v-4.9c-4.5-0.1-5.8,2.2-6.4,3.3v-2.9H223.1z M201.4,168.9
		v28.3h4.8V191l2.8-2.8l6.1,9h5.9l-8.4-12.4l7.7-7.7H214l-7.8,7.7v-15.9H201.4z M178.8,194.3c2.5,2.4,6.1,3.6,9.6,3.6
		c6.2,0,9-3.7,9-6.9c0-1.7-0.8-3.3-2-4.3c-1.3-1-2.4-1.2-6.6-2c-2.6-0.4-4.1-0.8-4.1-2.3c0-1,1-2,3.3-2c3.5,0,4.9,2,5.5,3.1l3.4-3.2
		c-0.4-0.5-1-1.2-2-1.8c-1.4-1-3.6-1.9-6.6-1.9c-5.5,0-8.6,3.1-8.6,6.5c0,1.8,0.9,4.6,5.7,5.7c0.7,0.2,4,0.8,4.7,1
		c0.6,0.1,2.1,0.4,2.1,1.7c0,1-1.2,2.4-4,2.4c-2.8,0-4.6-1.1-5.8-2.6L178.8,194.3z M161.9,184.6c0.6-2.7,2.3-4.2,4.9-4.2
		c2.1,0,4.1,1.1,4.5,4.2H161.9z M172.7,190.4c-0.6,0.8-1.9,2.8-5.2,2.8c-3.2,0-5.1-1.8-5.7-5h14.9c0-2-0.4-5.5-2-7.8
		c-0.4-0.6-2.6-3.8-7.9-3.8c-5.7,0-10,3.8-10,10.6c0,7.4,5.1,10.7,10.3,10.7c4.1,0,7.3-1.8,9.8-5.1L172.7,190.4z M147.8,187.3
		c0,4.3-2.2,6.2-4.7,6.2c-4.7,0-4.7-6-4.7-6.4c0-3.2,1.6-6.1,4.8-6.1c1.6,0,2.8,0.8,3.5,1.8C147.6,184.2,147.8,186,147.8,187.3
		 M147.8,168.9v9.9c-1.5-1.7-3.4-2.2-5.4-2.2c-5.7,0-9.1,5.1-9.1,11.1c0,6.6,4.1,10.2,8.9,10.2c2.1,0,4.1-0.7,5.6-2.5v1.9h4.8v-28.3
		H147.8z M111.9,197.2h4.9v-8.7c0-1.5,0-3.5,0.8-5c0.7-1.3,2.1-2.2,3.7-2.2c1.6,0,2.9,0.9,3.3,2.7c0.2,0.6,0.2,1.6,0.2,3.1v10.2h4.8
		v-11.8c0-2.6,0-4.8-1.2-6.5c-1-1.4-3-2.4-5.3-2.4c-1.6,0-3.4,0.5-4.6,1.4c-0.8,0.6-1.3,1.2-1.6,1.6v-2.4h-4.9V197.2z M101.9,177.1
		v8.5c0,2.8-0.1,4.1-0.8,5.4c-0.6,1-1.9,2.1-3.9,2.1c-1.8,0-3.2-0.8-3.7-2.5c-0.2-0.5-0.2-1.2-0.2-2v-11.5h-4.9v11.6
		c0,3,0,4.9,1.4,6.6c0.7,0.9,2.3,2.3,5.6,2.3c3.7,0,5.7-1.7,6.5-2.5v2h4.8v-20.1H101.9z M70,184.6c0.6-2.7,2.3-4.2,4.9-4.2
		c2.1,0,4.1,1.1,4.5,4.2H70z M80.7,190.4c-0.6,0.8-1.9,2.8-5.2,2.8c-3.2,0-5.1-1.8-5.7-5h14.9c0-2-0.4-5.5-2-7.8
		c-0.4-0.6-2.6-3.8-7.9-3.8c-5.7,0-10,3.8-10,10.6c0,7.4,5.1,10.7,10.3,10.7c4.1,0,7.3-1.8,9.8-5.1L80.7,190.4z M52.5,177.1v20.1
		h4.7v-7.4c0-3.3,0-5.4,2.1-6.9c1.5-1.1,3.3-1.2,4.3-1.2v-4.9c-4.5-0.1-5.8,2.2-6.4,3.3v-2.9H52.5z M36.7,173.6h13.5v-4.7H31.4v28.3
		h5.3v-12h11.8v-4.5H36.7V173.6z"/>
	<path fill="#FFF" d="M121.9,108.6V137h4.8v-9.2c0-2.2,0-2.6,0.2-3.2c0.3-1.2,1.8-3.7,4.9-3.7c2.6,0,3.3,1.8,3.5,2.2c0.2,0.6,0.2,1,0.3,2.9v11
		h4.7v-12.4c0-2.3,0-4.3-1.7-6.1c-1.1-1.2-3-2.2-5.5-2.2c-2.8,0-4.9,1.1-6.4,2.6v-10.3H121.9z M119.9,122c-1-2.3-3.6-5.7-8.7-5.7
		c-5.7,0-10.1,4.5-10.1,10.6c0,6.3,4.4,10.6,10,10.6c3.5,0,7.5-1.9,9-6.3l-4.1-2.2c-0.6,1.6-1.8,3.9-4.8,3.9c-3.2,0-5.1-2.6-5.1-6.3
		c0-4,2.2-6.2,5-6.2c2.8,0,4.2,2.1,4.5,3.4L119.9,122z M92.7,137h4.8v-20.1h-4.8V137z M92.7,113.8h4.8v-4.9h-4.8V113.8z M78.4,116.9
		V137h4.7v-7.4c0-3.3,0-5.4,2.1-6.9c1.5-1.1,3.3-1.2,4.3-1.2v-4.9c-4.5-0.1-5.8,2.2-6.4,3.3v-2.9H78.4z M65.8,113.4h4.5v-4.8h-4.5
		V113.4z M57.8,113.4h4.5v-4.8h-4.5V113.4z M68.4,116.9v8.5c0,2.8-0.1,4.1-0.8,5.4c-0.6,1-1.9,2.1-3.9,2.1c-1.8,0-3.2-0.8-3.7-2.5
		c-0.2-0.5-0.2-1.2-0.2-2v-11.5h-4.9v11.6c0,3,0,4.9,1.4,6.6c0.7,0.9,2.3,2.3,5.6,2.3c3.7,0,5.7-1.7,6.5-2.5v2h4.8v-20.1H68.4z
		 M36.4,132.2l14.9-19v-4.5H30.5v4.8h14.2l-15.5,19.2v4.3h22.1v-4.8H36.4z"/>
	<path fill="#FFF" d="M282.8,86.2c0,3.7-2.4,5.1-4.9,5.1c-2.9,0-5-1.8-5-5.3c0-3.9,2.5-5.5,4.9-5.5C281.1,80.5,282.9,82.9,282.8,86.2
		 M282.7,76.8v2.1c-0.6-0.7-2.1-2.7-5.7-2.7c-3.7,0-9,2.4-9,9.9c0,6.4,4,9.6,8.7,9.6c2.9,0,5-1.2,6-2.2c0,2.4,0,3.6-0.7,4.6
		c-0.4,0.6-1.5,1.6-4,1.6c-2.9,0-3.7-1.3-4.1-2.5h-5.3c0.7,3.2,2.1,6.3,9.2,6.3c4.7,0,7.2-1.6,8.4-3.1c1.2-1.7,1.2-3.3,1.3-7.3V76.8
		H282.7z M246.6,96.8h4.9v-8.7c0-1.5,0-3.5,0.8-5c0.7-1.3,2.1-2.2,3.7-2.2c1.6,0,2.9,0.9,3.3,2.7c0.2,0.6,0.2,1.6,0.2,3.1v10.2h4.8
		V85c0-2.6,0-4.8-1.2-6.5c-1-1.4-3-2.4-5.3-2.4c-1.6,0-3.4,0.5-4.6,1.4c-0.8,0.6-1.3,1.2-1.6,1.6v-2.4h-4.9V96.8z M236.6,76.8v8.5
		c0,2.8-0.1,4.1-0.8,5.4c-0.6,1-1.9,2.1-3.9,2.1c-1.8,0-3.2-0.8-3.7-2.5c-0.2-0.5-0.2-1.2-0.2-2V76.8h-4.9v11.6c0,3,0,4.9,1.4,6.6
		c0.7,0.9,2.3,2.3,5.6,2.3c3.7,0,5.7-1.7,6.5-2.5v2h4.8V76.8H236.6z M220.3,80.2v-3.5H216v-7.1h-4.8v7.1h-2.9v3.5h2.9v10.2
		c0,2,0,3.3,0.3,4.1c0.9,2.4,4.3,2.4,5.3,2.4c1.1,0,2-0.1,3.5-0.3v-4.1c-0.7,0.2-1.3,0.2-2,0.2c-2.3,0-2.3-1.1-2.3-3.6v-9.1H220.3z
		 M200.6,96.8h4.9V68.5h-4.9V96.8z M190.6,89.1c0,0.6,0,1.2-0.3,1.8c-0.5,1.2-2.2,2.3-4.7,2.3c-1.9,0-3.3-0.8-3.3-2.4
		c0-2.1,2.3-2.5,4-2.8c2.2-0.4,3.3-0.7,4.2-1.2V89.1z M183.2,83c0-0.6,0-1.1,0.5-1.8c0.5-0.6,1.6-1.3,3.6-1.3c3.3,0,3.4,2,3.4,3.1
		c-1.8,0.6-2.1,0.6-6.2,1.5c-1.9,0.4-5,1-6.5,3.9c-0.4,0.8-0.6,1.7-0.6,2.7c0,3.5,2.7,6.3,7.3,6.3c2.8,0,4.9-1.2,5.9-2
		c0,0.3,0.1,1.1,0.1,1.6h5.7c-0.9-1.2-0.9-1.7-0.9-3.3V83c0-2.2,0-4.1-2.4-5.5c-1.8-1-4.1-1.3-6-1.3c-1.3,0-6.1,0-8,3.5
		c-0.6,1.2-0.7,2-0.8,3L183.2,83z M175.1,80.2v-3.5h-4.3v-7.1h-4.8v7.1H163v3.5h2.9v10.2c0,2,0,3.3,0.3,4.1c0.9,2.4,4.3,2.4,5.3,2.4
		c1.1,0,2-0.1,3.5-0.3v-4.1c-0.7,0.2-1.3,0.2-2,0.2c-2.3,0-2.3-1.1-2.3-3.6v-9.1H175.1z M142.8,93.9c2.5,2.4,6.1,3.6,9.6,3.6
		c6.2,0,9-3.7,9-6.9c0-1.7-0.8-3.3-2-4.3c-1.3-1-2.4-1.2-6.6-2c-2.6-0.4-4.1-0.8-4.1-2.3c0-1,1-2,3.3-2c3.5,0,4.9,2,5.5,3.1l3.4-3.2
		c-0.4-0.5-1-1.2-2-1.8c-1.4-1-3.6-1.9-6.6-1.9c-5.5,0-8.6,3.1-8.6,6.5c0,1.8,0.9,4.6,5.7,5.7c0.7,0.2,4,0.8,4.7,1
		c0.6,0.1,2.1,0.4,2.1,1.7c0,1-1.2,2.4-4,2.4s-4.6-1.1-5.8-2.6L142.8,93.9z M126,84.2c0.6-2.7,2.3-4.2,4.9-4.2
		c2.1,0,4.1,1.1,4.5,4.2H126z M136.8,90c-0.6,0.8-1.9,2.8-5.2,2.8c-3.2,0-5.1-1.8-5.7-5h14.9c0-2-0.4-5.5-2-7.8
		c-0.4-0.6-2.6-3.8-7.9-3.8c-5.7,0-10,3.8-10,10.6c0,7.4,5.1,10.7,10.3,10.7c4.1,0,7.3-1.8,9.8-5.1L136.8,90z M104.8,81.3V86h7.1
		c-0.5,5-4,6.6-7,6.6c-4.6,0-8-3.6-8-9.8c0-5.6,2.6-10.2,7.9-10.2c4.8,0,6.3,4.1,6.9,5.6l5.1-2c-1.7-4.7-6.1-8.4-12-8.4
		C97,67.8,91.1,74,91.1,83c0,7.6,4.6,14.6,13.4,14.6c2.4,0,5.2-0.6,7.7-3.1v2.4h4.5V81.3H104.8z M66.7,76.8v20.1h4.7v-7.4
		c0-3.3,0-5.4,2.1-6.9c1.5-1.1,3.3-1.2,4.3-1.2v-4.9c-4.5-0.1-5.8,2.2-6.4,3.3v-2.9H66.7z M54.2,73.3h4.5v-4.8h-4.5V73.3z
		 M46.1,73.3h4.5v-4.8h-4.5V73.3z M56.7,76.8v8.5c0,2.8-0.1,4.1-0.8,5.4c-0.6,1-1.9,2.1-3.9,2.1c-1.8,0-3.2-0.8-3.7-2.5
		c-0.2-0.5-0.2-1.2-0.2-2V76.8h-4.9v11.6c0,3,0,4.9,1.4,6.6c0.7,0.9,2.3,2.3,5.6,2.3c3.7,0,5.7-1.7,6.5-2.5v2h4.8V76.8H56.7z
		 M40.6,80.2v-3.5h-4.4v-1.6c0-0.6,0.2-1.2,0.3-1.5c0.5-0.7,1.2-1,2.5-1c0.7,0,1.1,0,1.5,0.1v-4.1c-0.9-0.1-1.8-0.2-2.7-0.2
		c-6.5,0-6.5,3.1-6.5,6v2.3h-3v3.5h3v16.7h4.8V80.2H40.6z"/>
	<path fill="#FFF" d="M153.7,56.7h4.8v-8.4c0-2,0-3.9,0.9-5.4c0.8-1.5,2.2-2.3,3.7-2.3c1.7,0,2.7,1,3.1,2.4c0.2,0.6,0.2,1.1,0.2,2.6v11.2h4.8
		v-9.4c0-1.7,0.1-3.3,1-4.8c0.6-1,1.9-1.9,3.4-1.9c3.7,0,3.4,3.2,3.4,5.1v11.1h4.8V44c0-2.1,0-4.2-1.6-6c-1.4-1.5-3.3-2-5.3-2
		c-3.5,0-5.6,2-6.4,3.1c-1.3-2.4-3.7-3.1-5.6-3.1s-4.7,0.8-6.3,2.9v-2.2h-4.8V56.7z M143.6,36.6v8.5c0,2.8-0.1,4.1-0.8,5.4
		c-0.6,1-1.9,2.1-3.9,2.1c-1.8,0-3.2-0.8-3.7-2.5c-0.2-0.5-0.2-1.2-0.2-2V36.6h-4.9v11.6c0,3,0,4.9,1.4,6.6c0.7,0.9,2.3,2.3,5.6,2.3
		c3.7,0,5.7-1.7,6.5-2.5v2h4.8V36.6H143.6z M111.7,44.1c0.6-2.7,2.3-4.2,4.9-4.2c2.1,0,4.1,1.1,4.5,4.2H111.7z M122.5,49.8
		c-0.6,0.8-1.9,2.8-5.2,2.8c-3.2,0-5.1-1.8-5.7-5h14.9c0-2-0.4-5.5-2-7.8c-0.4-0.6-2.6-3.8-7.9-3.8c-5.7,0-10,3.8-10,10.6
		c0,7.4,5.1,10.7,10.3,10.7c4.1,0,7.3-1.8,9.8-5.1L122.5,49.8z M85.1,53.7c2.5,2.4,6.1,3.6,9.6,3.6c6.2,0,9-3.7,9-6.9
		c0-1.7-0.8-3.3-2-4.3c-1.3-1-2.4-1.2-6.6-2c-2.6-0.4-4.1-0.8-4.1-2.3c0-1,1-2,3.3-2c3.5,0,4.9,2,5.5,3.1l3.4-3.2
		c-0.4-0.5-1-1.2-2-1.8c-1.4-1-3.6-1.9-6.6-1.9c-5.5,0-8.6,3.1-8.6,6.5c0,1.8,0.9,4.6,5.7,5.7c0.7,0.2,4,0.8,4.7,1
		c0.6,0.1,2.1,0.4,2.1,1.7c0,1-1.2,2.4-4,2.4s-4.6-1.1-5.8-2.6L85.1,53.7z M76.7,36.6v8.5c0,2.8-0.1,4.1-0.8,5.4
		c-0.6,1-1.9,2.1-3.9,2.1c-1.8,0-3.2-0.8-3.7-2.5c-0.2-0.5-0.2-1.2-0.2-2V36.6h-4.9v11.6c0,3,0,4.9,1.4,6.6c0.7,0.9,2.3,2.3,5.6,2.3
		c3.7,0,5.7-1.7,6.5-2.5v2h4.8V36.6H76.7z M49.9,28.3l-5.4,21l-5.5-21h-7.7v28.3h5.2l-0.5-23.3L42,56.7h4.8l6.1-23.3l-0.5,23.3h5.2
		V28.3H49.9z"/>
</g>
</svg>
